<svg xmlns="http://www.w3.org/2000/svg" viewBox="0 0 626.91 534.5"><defs><style>.cls-1{fill:#fff;}</style></defs><title>Risorsa 2</title><g id="Livello_2" data-name="Livello 2"><g id="Livello_1-2" data-name="Livello 1"><path d="M137.85,534.5H17.27a3.49,3.49,0,0,1-2.19-6.21,1239.91,1239.91,0,0,1,497.28-240c4.29-1,6.08,5.26,1.92,6.7l-12,4.18a3.49,3.49,0,0,0-1.9,5L626.46,529.3a3.49,3.49,0,0,1-3.05,5.2h-122a3.49,3.49,0,0,1-3-1.72L390,348.35a3.48,3.48,0,0,0-4.6-1.34,892,892,0,0,0-245,186.38A3.47,3.47,0,0,1,137.85,534.5Z"/></g><g id="Livello_2-2" data-name="Livello 2"><path d="M.48,523.46,302.37,0l130,227,80.07-45.53a70.83,70.83,0,0,1,46.8-8.28l1,.17A70.88,70.88,0,0,1,617.37,260h0A1151.47,1151.47,0,0,0,5.62,527.75,3.4,3.4,0,0,1,.48,523.46Z"/><path class="cls-1" d="M256.69,288.66,293.76,224a10.06,10.06,0,0,1,17.39-.11l18.42,31.27a10,10,0,0,1-4.5,14.25A271.57,271.57,0,0,0,272.37,301l-.79.61C262.86,308.34,251.21,298.22,256.69,288.66Z"/></g></g></svg>