<?xml version="1.0" encoding="UTF-8"?> <svg xmlns="http://www.w3.org/2000/svg" width="1684" height="684" viewBox="0 0 1684 684" fill="none"> <g clip-path="url(#clip0_40:864)"> <path fill-rule="evenodd" clip-rule="evenodd" d="M250.435 408.524C245.754 411.455 241.073 414.386 236.392 416.144C233.466 417.902 230.541 419.075 227.615 420.247C231.126 436.072 234.637 452.483 228.785 468.308C221.764 487.65 204.795 497.614 186.071 503.476L150.963 515.198C145.697 517.542 139.846 519.887 133.994 521.645C128.143 524.576 121.122 525.748 114.685 525.748C105.323 525.748 103.568 525.162 95.376 521.645C86.599 517.542 77.8221 513.44 69.6303 507.578C51.4913 494.098 36.278 478.272 36.278 454.828V452.483C36.278 426.108 35.6928 397.388 31.0118 371.599C28.6713 356.946 25.1605 344.638 19.8944 331.157C15.7985 319.434 11.7026 308.298 8.77693 296.576C4.0959 278.406 1.75539 259.65 0 240.895V240.308V236.792V236.206C0 205.141 25.1605 182.283 49.7359 167.63C78.9924 150.632 114.685 141.255 148.038 138.91C188.411 135.979 231.711 143.599 264.478 169.388C265.063 167.044 265.648 164.699 266.819 162.355C270.329 151.219 273.255 140.082 276.181 128.36C276.181 111.949 294.905 96.1234 307.193 87.3316C324.746 74.437 345.811 63.3008 366.876 56.2674C417.197 39.856 465.177 48.6478 492.093 96.1234C559.383 59.1979 649.493 50.4062 705.08 103.743C705.08 102.571 705.665 101.985 705.665 100.812C705.665 78.5398 724.389 64.473 741.943 55.0951C760.667 45.1311 782.902 38.0977 803.382 32.2365C818.595 27.5476 834.393 24.0308 850.192 19.928C860.724 16.9974 872.427 14.0668 882.374 10.5501L908.705 0V28.7198C908.705 61.5424 929.769 73.2648 938.546 100.812C938.546 101.398 939.131 102.571 939.131 103.157C994.719 57.4396 1063.18 65.6452 1109.4 114.879C1112.33 110.776 1115.26 107.26 1119.35 104.329C1136.9 89.6761 1160.31 85.5733 1182.54 89.09C1194.25 90.8483 1205.95 94.9512 1215.9 100.812C1231.7 69.162 1266.22 43.9589 1296.65 30.4781C1329.41 15.8252 1368.62 9.96401 1402.55 23.4447C1425.96 32.8226 1456.39 45.1311 1466.33 70.9203C1471.01 83.2288 1469.84 95.5373 1468.09 108.432C1466.92 115.465 1465.16 123.085 1463.99 130.118C1515.48 127.774 1572.24 111.949 1620.81 134.221H1640.12L1645.97 142.427C1648.89 147.116 1653.57 151.805 1657.08 155.907C1663.52 163.527 1669.37 172.319 1674.05 181.111C1688.1 208.658 1686.93 237.964 1675.22 266.098C1672.88 271.959 1671.71 278.406 1668.79 284.267C1664.69 293.645 1658.84 301.851 1651.23 307.126C1651.23 308.884 1651.23 310.057 1651.23 311.815C1658.25 316.504 1664.11 322.951 1668.79 330.571C1681.07 351.085 1680.49 376.874 1675.22 399.733C1669.37 424.35 1648.89 472.411 1618.47 472.411H1617.88C1591.55 475.342 1569.31 474.756 1543.57 468.895C1533.62 466.55 1523.67 463.62 1513.14 461.861C1499.1 458.931 1485.06 457.758 1471.01 457.172L1452.29 456.586L1438.83 443.105C1431.22 435.486 1421.86 428.452 1413.09 421.419L1406.06 416.144C1390.27 429.625 1372.71 441.347 1352.23 443.691C1322.98 447.794 1291.38 432.555 1265.63 419.075C1255.69 434.314 1238.13 443.105 1218.24 443.691C1201.85 444.278 1185.47 446.036 1169.09 446.622C1152.12 447.208 1118.77 448.38 1104.72 437.83C1095.36 430.797 1088.92 420.247 1084.24 409.111C1076.64 417.316 1067.86 424.936 1060.84 430.211C1042.11 443.105 1014.03 454.828 992.378 461.275C964.292 469.481 925.673 475.342 900.513 455.414C887.055 444.864 880.619 429.625 878.863 413.213L875.938 406.18H847.851L848.436 404.422C847.266 404.422 846.096 404.422 844.926 404.422C829.712 404.422 815.084 399.733 803.967 390.355C796.36 394.458 787.583 396.216 778.221 396.216H761.837L760.667 395.63C755.401 406.18 747.794 416.144 740.773 424.35C733.751 438.416 722.634 450.725 712.102 462.447L698.058 477.1H678.164C658.855 477.1 643.056 467.136 631.354 453.069L628.428 452.483C626.088 453.655 623.747 454.242 621.407 455.414C617.311 457.758 612.63 460.103 607.949 461.861C595.661 467.722 583.373 474.17 570.5 478.859L540.074 490.581L531.297 481.203C517.254 466.55 504.966 449.553 489.167 436.658L481.561 430.797V422.005C481.561 418.488 481.561 414.972 481.561 412.041H480.976C470.443 417.316 459.911 422.591 448.794 426.694C421.878 436.658 393.206 437.244 373.897 419.075C366.29 422.591 358.099 424.936 349.322 424.936C332.938 424.936 317.725 421.419 304.267 411.455C300.171 408.524 296.66 405.008 292.564 401.491C290.809 399.733 288.468 397.974 286.713 396.216C279.106 392.699 257.457 405.008 250.435 408.524Z" fill="black"></path> <path fill-rule="evenodd" clip-rule="evenodd" d="M497.359 380.391L484.487 386.252C480.391 388.01 476.295 389.769 472.199 390.941C444.698 405.594 396.132 429.625 376.238 389.183C369.216 397.388 359.269 402.663 347.566 402.663C289.054 402.663 312.459 347.568 238.733 389.183C235.222 392.113 231.126 393.871 226.445 395.63C220.008 399.147 211.817 402.663 203.625 405.008C204.21 411.455 204.795 411.455 205.965 416.73C212.987 447.794 218.253 468.895 179.049 482.375L142.771 494.098C137.505 496.442 131.654 498.787 125.803 500.545C121.707 502.303 117.611 503.476 112.93 503.476C105.323 503.476 108.249 504.062 101.227 501.131C93.6206 497.614 86.014 494.098 78.9924 488.823C66.7047 479.445 53.8319 468.309 53.8319 451.311V448.967C53.2468 308.298 27.5011 340.535 18.139 235.62V233.275C18.139 172.319 179.049 120.154 254.531 184.041C259.797 187.558 264.478 192.833 269.159 197.522L274.425 202.797C277.936 187.558 279.692 179.938 284.373 165.285C288.468 152.977 291.394 140.082 294.32 127.774C294.32 127.188 294.32 126.602 294.32 125.429C294.32 106.674 428.314 11.1362 476.88 107.846C479.22 111.362 482.146 115.465 484.487 119.568C560.553 69.7481 667.632 62.7146 712.687 143.013C717.368 128.36 720.878 114.293 724.389 99.6401C724.389 99.054 724.389 98.4679 724.389 97.2956C724.389 59.1979 851.947 39.856 888.81 24.6169C888.81 70.3342 920.992 84.9871 920.992 113.707V141.254C921.578 140.668 922.748 139.496 923.333 138.91C926.844 134.221 931.525 130.118 937.376 126.602C999.4 60.3702 1078.98 86.1594 1116.43 154.149C1112.91 93.7789 1189.57 87.9177 1228.77 131.877L1226.43 119.568L1229.36 112.535C1247.49 63.8869 1334.68 13.4807 1394.36 37.5115C1464.58 65.6452 1451.7 77.9537 1438.83 143.599L1438.25 147.116C1442.93 146.53 1447.02 145.357 1451.7 145.357C1453.46 145.357 1455.8 145.357 1457.56 145.943C1514.9 144.185 1569.9 126.602 1614.95 150.046H1628.41C1639.53 166.458 1679.9 196.35 1655.91 256.134C1651.82 266.684 1647.72 290.715 1630.17 290.715C1630.17 299.506 1630.17 309.47 1630.17 318.262C1631.34 320.021 1633.09 321.779 1634.26 322.365C1685.76 350.499 1640.7 450.139 1616.71 450.139H1614.95C1544.74 457.758 1542.98 437.83 1469.84 434.9L1458.73 434.314L1451.12 426.694C1443.51 419.075 1432.39 410.869 1424.2 403.836L1419.52 399.733L1410.75 382.149V381.563C1358.08 434.314 1337.6 432.555 1267.39 395.63C1262.71 390.941 1259.78 389.183 1253.93 386.252H1253.35V389.183C1252.76 409.697 1235.21 420.833 1216.48 421.419C1197.76 422.005 1128.13 429.039 1115.26 419.075C1107.65 413.213 1101.21 402.077 1095.95 382.735C1092.44 379.805 1089.51 376.288 1086 373.357C1077.22 384.494 1059.08 403.249 1047.97 411.455C990.623 456.586 875.352 460.689 894.662 384.494L880.619 374.53C863.65 383.321 820.35 392.113 805.137 361.635C798.115 369.841 788.168 375.116 776.466 375.116H766.518L758.912 369.255C755.986 366.91 750.72 364.566 746.039 362.807V369.255C746.039 383.321 731.996 400.905 722.634 412.627C716.783 425.522 706.25 437.244 696.303 447.208L688.111 456H675.824C663.536 456 634.865 436.658 630.184 426.108C624.332 430.211 617.896 433.728 610.874 436.072C606.778 438.417 602.682 440.175 598.001 441.933C586.299 447.794 573.426 454.242 561.138 458.931L542.999 465.964C527.201 448.967 516.669 433.728 498.53 419.661C499.7 403.836 500.285 396.802 497.359 380.391Z" fill="#7AD9F8"></path> <path fill-rule="evenodd" clip-rule="evenodd" d="M1454.04 174.663C1469.84 174.077 1482.13 174.077 1490.91 174.077H1501.44C1502.61 174.077 1503.78 174.077 1504.37 173.491C1505.54 174.077 1506.12 174.077 1507.29 174.077H1523.09L1524.26 174.663V174.077C1526.02 174.663 1529.53 175.249 1535.38 176.422V175.836L1536.55 176.422H1538.89C1539.47 176.422 1539.47 176.422 1539.47 175.836C1540.06 175.836 1540.06 175.835 1540.06 176.422L1542.98 175.836C1544.15 175.836 1547.67 176.422 1552.35 177.594C1552.93 177.594 1552.93 177.594 1552.93 177.008C1559.95 177.594 1564.05 178.18 1565.8 178.18L1573.41 177.008C1575.75 178.18 1579.26 178.18 1583.36 178.18H1586.28C1586.87 178.18 1586.87 178.18 1586.87 178.766C1587.45 178.766 1587.45 178.766 1587.45 178.18L1590.96 178.766H1592.72C1594.48 178.766 1595.06 178.766 1595.06 178.18L1599.16 178.766H1604.42C1605.01 178.766 1605.01 178.766 1605.01 178.18L1606.76 178.766H1612.03C1615.54 183.455 1617.3 188.144 1617.3 192.247L1627.83 212.761C1628.41 212.761 1628.41 213.347 1628.41 215.105C1626.66 219.208 1625.49 222.725 1625.49 225.069H1626.07L1622.56 243.239H1623.15C1619.64 253.203 1617.88 258.478 1617.3 258.478C1614.95 259.65 1613.78 260.823 1613.78 261.995C1612.61 261.995 1611.44 261.409 1609.1 260.237L1604.42 260.823C1603.84 260.823 1603.84 260.823 1603.84 260.237L1602.08 260.823H1599.74C1598.57 260.823 1597.4 260.823 1596.82 260.237C1595.65 260.823 1593.31 261.409 1589.21 261.995C1587.45 261.409 1586.28 260.823 1586.28 260.237L1576.92 261.995C1576.92 261.409 1576.92 261.409 1576.34 261.409V261.995C1578.09 261.995 1580.43 264.339 1583.36 269.028C1595.06 281.337 1600.91 288.956 1600.91 291.887C1599.74 291.887 1599.16 299.506 1598.57 314.746L1600.33 324.71H1599.74C1605.59 336.432 1612.61 344.051 1620.22 348.154C1620.22 352.257 1619.64 358.118 1618.47 366.91H1619.05L1617.88 372.185C1618.47 372.185 1618.47 372.185 1618.47 372.771H1617.88L1618.47 374.53L1617.88 386.838C1618.47 391.527 1618.47 393.872 1618.47 394.458C1618.47 395.044 1618.47 395.044 1617.88 395.044C1619.05 399.733 1619.05 406.766 1619.05 415.558C1618.47 420.247 1617.3 422.591 1616.13 422.591H1615.54C1614.96 422.005 1612.61 420.833 1607.93 420.247L1606.76 420.833H1605.01C1603.84 419.075 1597.4 418.488 1586.87 418.488C1586.87 417.902 1586.87 417.902 1586.28 417.902V418.488C1585.7 417.316 1579.26 416.73 1566.97 416.144C1565.22 414.972 1562.88 414.972 1561.12 414.972C1560.54 414.972 1560.54 414.972 1560.54 415.558L1558.78 414.972H1556.44C1547.08 414.972 1538.89 413.8 1533.04 412.041V412.627C1529.53 410.869 1526.02 410.283 1522.5 410.283H1519.58C1518.41 410.283 1517.24 410.283 1516.65 410.869C1510.8 409.111 1496.17 407.352 1471.6 406.18C1468.09 402.663 1458.14 393.872 1442.34 381.563L1440 376.874C1443.51 337.604 1446.44 311.229 1449.36 296.576C1449.36 290.129 1449.95 285.44 1451.7 282.509H1451.12L1451.7 280.751V272.545C1451.7 270.201 1452.87 265.512 1454.63 257.892C1453.46 257.892 1447.61 251.445 1436.49 237.964C1438.83 229.758 1441.17 211.003 1444.1 182.283L1443.51 175.249L1452.87 174.077C1452.29 174.077 1452.87 174.663 1454.04 174.663ZM1186.06 151.805C1192.49 154.149 1200.68 161.183 1211.22 172.905C1225.26 191.075 1232.28 201.039 1231.7 203.383C1234.04 212.761 1234.62 218.622 1234.62 222.139V226.242C1234.62 226.828 1234.62 226.828 1235.21 226.828C1234.04 232.103 1232.87 235.033 1231.7 236.206C1231.7 236.792 1231.7 236.792 1232.28 237.378C1227.6 245.584 1221.16 250.859 1214.14 252.031C1209.46 253.789 1206.54 254.375 1204.19 254.375V254.961C1220.58 271.959 1228.77 283.095 1228.77 287.784V288.37C1228.77 291.301 1228.19 295.99 1227.6 301.851C1227.6 308.298 1227.6 311.815 1227.6 312.401C1227.01 318.262 1226.43 324.71 1226.43 330.571C1227.01 330.571 1227.01 331.157 1227.01 331.743H1226.43L1227.01 333.501V335.26C1227.01 335.846 1227.01 335.846 1226.43 335.846C1227.01 338.776 1227.01 340.535 1227.6 340.535C1227.6 341.121 1227.6 341.121 1227.01 341.121C1227.01 342.293 1227.01 342.879 1227.6 342.879C1227.01 349.327 1226.43 354.602 1226.43 358.118L1225.26 389.183C1225.26 392.113 1222.33 393.871 1215.9 393.871C1203.61 394.458 1188.98 394.458 1172.6 394.458C1165.58 393.872 1160.31 394.458 1156.8 395.044V394.458C1146.27 395.63 1140.42 395.63 1139.25 395.63C1139.25 395.044 1136.32 391.527 1130.47 383.908C1130.47 382.149 1128.13 378.046 1122.86 371.599C1122.28 369.841 1120.52 367.496 1116.43 363.393C1118.77 352.257 1120.52 344.051 1121.69 338.776C1121.69 338.19 1121.69 338.19 1121.11 338.19C1123.45 324.71 1125.2 314.746 1126.96 309.47H1126.37C1127.54 307.126 1129.3 299.506 1131.64 285.44H1131.05C1133.39 280.165 1135.73 266.684 1139.25 245.584C1139.25 243.825 1143.93 243.239 1152.7 244.411H1167.33V243.825C1167.33 243.239 1159.14 233.861 1142.17 216.278C1138.08 207.486 1136.32 198.108 1136.32 188.73H1136.9C1136.9 188.144 1136.9 188.144 1136.32 188.144C1137.49 179.352 1141 170.56 1147.44 160.596C1154.46 154.735 1160.31 152.391 1166.16 152.391L1166.75 151.219C1167.33 151.219 1167.33 151.805 1167.33 151.805H1173.18V152.391C1174.94 152.391 1175.52 151.805 1175.52 151.219C1181.37 152.977 1184.3 154.149 1184.3 154.735L1186.06 151.805ZM1367.45 64.473L1375.05 66.8175L1376.81 66.2314C1382.66 67.4036 1386.17 68.5758 1386.75 69.162L1387.93 68.5758C1398.46 72.0926 1406.06 75.6093 1410.75 78.5399C1410.75 79.7121 1412.5 80.8843 1416.6 82.0566L1420.69 84.9872V90.2622C1418.94 96.7095 1418.35 100.812 1418.35 101.398L1418.94 103.157C1417.77 106.087 1415.43 117.81 1411.33 138.91C1410.75 138.91 1405.48 145.943 1396.12 159.424C1396.12 160.596 1394.36 163.527 1390.27 167.044C1387.34 171.147 1385.58 173.491 1385.58 174.663H1384.41C1384.41 173.491 1382.07 171.147 1377.39 166.458L1369.2 164.113H1366.86C1366.86 165.871 1366.86 167.044 1366.28 167.63C1368.03 170.56 1370.37 176.422 1372.13 184.041C1377.39 197.522 1384.41 211.003 1393.78 223.897C1397.29 232.103 1400.8 237.964 1402.55 240.309H1403.14V242.653C1403.14 243.825 1406.06 250.273 1411.33 261.409C1411.33 262.581 1413.09 270.201 1416.6 284.267H1416.01C1416.6 284.854 1417.18 288.37 1417.18 294.818C1416.6 295.99 1416.6 296.576 1416.6 297.162C1416.6 297.748 1416.6 297.748 1417.18 297.748C1417.18 307.712 1414.26 320.021 1408.4 334.087C1408.4 337.018 1406.65 339.363 1403.72 342.293C1401.97 344.638 1400.21 346.982 1399.04 349.913C1397.29 351.085 1394.95 353.429 1393.19 357.532C1386.75 365.152 1377.39 371.599 1365.11 376.874C1355.74 381.563 1346.38 383.908 1338.19 383.908V384.494L1332.92 383.908H1327.07L1325.32 383.321V383.908L1324.15 383.321C1323.56 383.321 1323.56 383.321 1323.56 383.908L1318.29 382.149V382.735C1317.12 382.149 1314.2 382.149 1308.35 381.563V382.149C1297.82 378.632 1290.21 375.116 1284.36 372.185C1281.43 369.255 1275.58 365.152 1267.97 361.049C1267.97 359.877 1265.63 357.532 1260.37 354.015C1252.76 347.568 1247.49 341.121 1244.57 334.087V331.743C1245.74 331.743 1246.91 328.226 1249.25 321.779C1252.18 317.09 1254.52 311.815 1256.27 306.54C1257.44 305.954 1259.2 301.265 1262.12 293.645C1266.22 287.784 1270.9 281.923 1277.34 276.062C1277.34 275.476 1280.26 272.545 1285.53 267.27C1287.87 263.167 1291.38 259.65 1294.3 258.478C1297.82 268.442 1301.33 274.89 1304.25 277.82H1303.67C1303.67 278.406 1305.42 280.165 1309.52 283.681C1309.52 287.198 1314.2 290.129 1324.15 292.473C1324.15 293.059 1324.15 293.059 1324.73 293.059C1325.9 291.301 1326.49 290.129 1327.07 290.129C1327.07 284.267 1320.05 270.201 1306.59 248.514C1298.99 236.792 1293.72 227.414 1290.79 220.38C1285.53 212.175 1282.02 205.141 1279.68 199.866C1277.34 198.108 1275.58 194.591 1274.41 189.316C1269.73 181.111 1267.39 175.249 1266.8 172.905C1263.88 169.974 1260.95 162.941 1258.61 151.219C1258.61 148.874 1258.03 144.771 1256.86 138.91C1263.29 121.913 1269.14 110.776 1275 105.501C1275 103.743 1276.17 101.985 1278.51 100.812C1286.7 91.4345 1293.72 86.1594 1298.4 84.401C1298.4 83.2288 1300.74 81.4704 1305.42 78.5399V79.126L1330 67.9897V70.3342C1337.02 68.5758 1342.87 67.4036 1346.38 65.6453L1348.14 66.2314C1352.82 65.0591 1355.74 64.473 1356.33 64.473V65.0591C1358.08 64.473 1359.25 63.8869 1359.25 63.3008L1361.01 63.8869H1364.52C1365.69 65.0591 1366.28 65.0591 1367.45 64.473ZM1037.43 124.257C1043.87 126.602 1050.31 128.946 1056.74 131.877C1057.91 131.877 1059.08 133.049 1060.84 134.807C1067.86 138.91 1073.13 143.599 1076.64 148.874C1088.92 162.355 1096.53 176.422 1098.87 189.902C1101.8 196.936 1103.55 202.797 1103.55 207.486V211.589C1103.55 212.175 1104.14 212.175 1104.14 212.175L1103.55 213.347V213.933L1104.72 218.036H1104.14L1105.31 219.208L1105.89 226.828C1105.89 227.414 1105.89 227.414 1105.31 227.414L1105.89 229.172C1105.89 255.548 1103.55 274.303 1100.04 284.854C1095.36 297.162 1090.09 310.057 1083.66 322.365C1079.56 331.743 1074.3 341.121 1067.86 349.913C1062.59 356.946 1059.67 360.463 1058.5 360.463C1052.65 368.082 1043.87 376.874 1032.17 387.424C1012.27 401.491 994.134 408.524 977.75 409.697L962.537 411.455L960.781 410.869C960.196 410.869 960.196 410.869 960.196 411.455C955.515 410.869 953.174 410.283 953.174 409.697L951.419 410.283H949.079L947.323 409.111L946.738 410.869C943.227 410.283 940.887 409.697 939.717 409.111C938.546 409.697 937.961 409.697 937.376 409.697V409.111L935.621 409.697L932.11 409.111V409.697C926.844 408.524 924.503 406.18 924.503 402.663V401.491C924.503 400.905 924.503 400.905 925.088 400.905L923.333 396.216C924.503 393.872 924.503 391.527 924.503 389.183C923.918 389.183 923.918 389.183 923.918 388.596H924.503L923.918 387.424L924.503 385.666C924.503 385.08 924.503 385.08 923.918 385.08C923.918 384.494 923.918 383.908 924.503 382.735C922.748 374.53 922.163 369.255 922.163 366.91L922.748 363.393C922.163 357.532 921.578 355.188 920.992 355.188L921.578 354.015V348.74C921.578 348.154 920.992 348.154 920.407 348.154C920.407 347.568 920.407 347.568 920.992 347.568L919.822 338.776L919.237 327.054C919.237 325.296 919.237 322.951 919.822 320.021L918.652 318.262C918.652 317.676 918.652 317.676 919.237 317.676C919.237 317.09 918.652 316.504 918.067 315.332C918.067 310.057 918.652 305.954 918.067 303.023L918.652 301.265H918.067C918.067 300.679 918.067 300.679 918.652 300.679L917.482 295.404L916.897 279.578C916.897 278.992 916.311 278.992 916.311 278.992C916.311 278.406 916.311 278.406 916.897 278.406C915.726 273.717 915.141 270.787 915.141 269.614H915.726L915.141 267.856C915.141 267.27 915.141 267.27 915.726 267.27C915.141 266.098 915.141 265.512 915.141 264.925C915.726 263.753 915.726 263.167 915.726 262.581H915.141C915.141 261.995 915.141 261.995 915.726 261.995L913.971 249.686C913.971 248.514 913.971 246.17 914.556 243.825C913.971 236.792 913.386 229.758 912.801 223.311V222.725L911.63 219.208H912.216C912.216 218.622 912.216 218.622 911.63 218.622C912.216 214.519 912.801 208.658 912.216 201.625L911.63 194.005C911.63 193.419 911.045 193.419 911.045 193.419C911.045 192.247 922.748 180.524 945.568 157.666C945.568 156.494 949.079 153.563 955.515 149.46C956.1 145.943 966.047 140.082 985.357 130.118V130.704L994.719 125.429V126.015L1002.33 123.085C1003.5 123.671 1004.08 123.671 1004.67 123.671C1004.67 123.085 1004.67 123.085 1005.25 123.085V123.671C1007.59 122.499 1009.93 121.913 1013.44 121.326C1014.03 121.326 1014.03 121.326 1014.03 121.913L1017.54 121.326H1018.12L1023.39 121.913V121.326C1026.9 121.913 1031 123.085 1036.26 123.671L1037.43 124.257ZM688.111 213.933V218.036C682.26 233.275 677.579 244.411 672.898 251.445C671.728 252.617 667.047 259.65 659.44 271.959C655.344 275.476 653.589 278.406 653.589 280.751C653.003 280.751 648.322 285.44 639.546 295.404H637.205C637.205 295.99 637.205 295.99 636.62 295.99C640.716 301.851 647.152 308.298 656.514 314.746C658.855 318.262 667.047 325.882 681.09 337.604C681.675 337.604 684.015 339.363 689.281 342.879L690.452 342.293C690.452 344.638 693.377 346.982 699.814 349.327C708.591 359.877 714.442 366.324 718.538 369.255V369.841C718.538 372.185 712.102 381.563 698.644 398.56C695.718 406.18 688.111 416.144 676.994 427.866C672.898 427.866 668.217 423.764 662.951 415.558C659.44 411.455 657.099 409.697 654.759 408.524C652.418 403.836 647.152 397.388 637.79 388.596C637.205 386.838 629.598 378.046 616.14 361.635C614.385 358.118 613.215 356.36 612.044 356.36H611.459C611.459 359.877 612.044 363.393 612.63 366.91L612.044 368.668C614.385 385.08 616.14 395.044 617.311 399.733V400.319C614.97 403.836 609.119 407.352 599.172 410.283C599.172 411.455 595.661 413.213 588.639 415.558C569.915 424.936 557.628 430.211 552.361 431.969C544.17 422.591 539.489 417.902 539.489 416.73C537.733 413.213 534.222 409.697 528.956 405.594V400.905C528.956 390.941 525.445 371.599 519.009 342.879L519.594 341.121C519.594 339.949 519.009 335.26 517.254 327.64C517.839 326.468 517.839 325.882 517.839 325.296C516.669 323.537 516.083 317.09 514.913 305.368H515.498L510.232 278.992H510.817C509.647 277.234 509.062 270.201 507.892 257.892H504.966C502.04 257.892 494.434 250.859 481.561 236.792C479.805 232.103 478.05 219.208 475.71 198.108L476.295 196.936C474.539 190.488 473.954 181.697 473.369 170.56C475.124 169.974 482.731 161.769 496.189 146.53C509.647 137.738 520.179 131.29 528.371 127.774C528.371 126.602 528.956 126.015 530.126 126.015C530.126 126.602 530.126 126.602 530.712 126.602C530.712 125.429 534.222 124.257 540.659 121.913V122.499C543.584 121.326 545.34 120.154 545.34 119.568L547.095 120.154H547.68C555.872 117.224 559.968 115.465 559.968 114.879L562.894 115.465C568.745 114.879 571.671 113.707 572.841 112.535C573.426 112.535 573.426 112.535 573.426 113.121C579.277 112.535 582.203 111.949 582.203 110.776L583.958 111.362H586.884L592.15 110.776V111.362L593.906 110.776H594.491C595.076 110.776 595.076 110.776 595.076 111.362L596.831 110.776C597.416 110.776 597.416 110.776 597.416 111.362C598.001 111.362 598.001 111.362 598.001 110.776L601.512 111.362C602.097 111.362 602.682 111.362 603.853 110.776L605.023 111.362L606.778 110.776L611.459 112.535V111.949L613.215 112.535H620.236L621.407 113.121V112.535C636.035 116.051 646.567 119.568 651.833 123.671C651.833 124.257 657.099 127.774 667.047 134.807C669.387 137.152 674.068 141.255 680.505 147.116C687.526 154.149 691.622 161.183 691.622 168.216L693.962 181.697H693.377L694.548 190.488C693.377 192.833 692.207 198.694 691.037 208.658V213.347H688.111V213.933ZM890.566 140.082V131.877L889.981 130.704C890.566 130.704 890.566 130.704 890.566 130.118V124.257L889.981 118.982C890.566 116.638 891.736 115.465 892.321 115.465C892.321 112.535 888.81 106.087 881.789 95.5373C875.938 83.8149 872.427 77.9537 870.671 76.7815C870.671 70.9203 867.746 68.5758 862.48 68.5758C861.894 68.5758 861.309 68.5758 860.139 69.162V68.5758C851.362 72.0926 836.734 76.1954 816.84 81.4704V80.8843C807.478 83.8149 801.626 85.5733 799.286 86.1594C778.221 89.6761 765.933 92.6067 761.837 95.5373C755.986 96.7095 752.475 97.8818 752.475 99.054C752.475 99.6401 752.475 100.226 753.06 101.398C748.965 118.982 744.869 134.221 740.773 147.702C736.092 162.355 733.166 173.491 731.411 181.697C722.634 223.311 713.272 256.72 705.08 283.095C706.835 288.956 709.176 294.231 712.101 298.92C714.442 303.023 716.197 305.954 716.197 307.126C720.878 314.746 723.219 318.848 723.219 320.021C729.07 322.951 733.166 325.296 734.336 327.054C742.528 329.398 748.965 332.329 752.475 335.26C764.763 340.535 772.955 344.638 777.636 348.154C781.732 348.154 784.657 345.81 785.828 341.121H785.243L791.094 318.262C792.849 309.47 795.19 305.368 796.945 305.368C798.701 305.954 799.286 307.126 799.286 307.712L802.211 305.368H806.892L808.648 305.954V305.368L809.818 305.954H817.425V310.643L818.01 314.159C817.425 314.159 817.425 314.159 817.425 314.746H818.01L817.425 315.918V318.262C817.425 318.848 817.425 318.848 818.01 318.848C819.18 324.71 822.106 331.157 826.787 339.363C831.468 349.327 833.808 354.602 834.393 354.602C841.415 353.429 853.117 349.913 870.086 343.465C870.671 343.465 871.257 343.465 872.427 344.051L885.885 338.19C887.055 338.19 887.64 338.776 887.64 339.363C890.566 337.604 892.321 336.432 892.321 335.26L894.077 335.846H894.662C895.832 335.846 898.758 334.674 902.853 332.915V332.329C902.853 328.226 902.268 321.779 900.513 312.987C901.098 312.987 901.098 312.987 901.098 312.401C900.513 312.401 899.928 310.057 899.343 304.782C899.928 304.782 900.513 303.609 901.098 300.679C899.928 300.679 899.343 298.92 898.758 294.818C899.343 294.818 899.343 294.818 899.343 294.231L897.587 287.198C898.172 286.026 898.172 285.44 898.172 284.267V283.681C898.172 279.578 898.172 274.303 897.587 267.856L898.172 266.098C897.587 266.098 897.587 266.098 897.587 265.512V264.339C897.587 261.409 897.587 257.306 897.002 252.031L897.587 250.859H897.002C897.002 250.273 897.002 250.273 897.587 250.273L896.417 224.483C897.002 224.483 897.002 224.483 897.002 223.897H896.417C895.832 212.761 895.247 205.728 894.077 203.969L894.662 199.28V198.694C894.662 195.177 894.662 190.488 894.077 183.455C894.662 183.455 894.662 183.455 894.662 182.869C894.076 182.869 893.491 180.524 893.491 175.836H894.077C892.906 171.733 892.321 168.216 892.321 165.285V158.252L891.736 156.494H892.321C892.906 155.321 891.736 150.046 890.566 140.082ZM178.464 184.041L182.56 184.627H190.167C191.337 184.627 192.507 184.627 193.092 185.213L194.263 184.627C207.721 186.386 221.764 194.005 237.562 207.486C238.732 207.486 242.243 211.003 248.094 217.45C248.094 219.208 251.02 222.139 256.286 227.414C266.819 239.722 272.085 252.031 272.085 264.925C272.67 264.925 272.67 266.684 272.67 269.614V274.303C272.67 287.198 271.5 298.92 269.159 308.298C266.233 319.434 265.063 321.779 259.212 331.157C250.435 345.81 238.147 357.532 222.349 365.738C222.349 366.324 219.423 368.082 214.157 370.427C208.891 373.357 196.603 378.046 177.294 385.08V384.494C174.953 385.08 174.368 386.252 174.368 388.01L174.953 393.285C174.953 393.872 174.953 394.458 174.368 395.63C175.539 409.111 176.709 417.902 177.294 421.419C176.709 421.419 176.709 421.419 176.709 422.005C177.294 422.005 177.294 422.005 177.294 422.591H176.709L177.294 424.35V424.936C177.294 425.522 177.294 425.522 176.709 425.522C177.294 426.694 177.294 430.211 177.879 436.072H177.294C177.879 436.658 178.464 441.347 179.634 449.553C179.634 451.311 176.124 453.656 169.687 455.414C169.687 454.828 169.687 454.828 169.102 454.828C169.102 456 158.57 459.517 138.09 465.378C126.973 470.653 118.781 473.584 114.1 474.756C114.1 475.342 114.1 475.342 113.515 475.342C106.493 472.411 101.227 469.481 97.1313 466.55C88.3544 460.103 83.6733 454.828 83.6733 451.897V449.553C83.6733 445.45 82.5031 435.486 80.7477 419.075V413.8C80.7477 413.213 80.7477 413.213 81.3328 413.213C80.1626 410.283 80.1626 406.18 80.1626 400.319H80.7477L78.9923 398.56C78.9923 391.527 78.4072 376.874 76.6518 353.429V351.085L76.0667 349.327H76.6518C73.7261 325.296 71.9708 309.47 71.9708 302.437V301.851C71.3856 300.093 66.1195 297.162 55.002 293.645C52.6615 293.645 49.7359 273.717 46.2251 233.275C46.2251 231.517 52.6615 227.414 64.9492 220.38C66.7046 220.38 68.46 218.622 71.9708 215.105C73.7261 215.105 80.1626 211.589 90.6949 205.141C94.7908 203.383 102.983 200.452 114.1 195.177C114.685 195.177 115.27 195.177 116.441 194.591V195.177C138.09 189.316 153.889 186.386 162.666 186.386C162.666 185.8 165.591 185.213 170.858 184.627V185.213C176.124 184.627 178.464 184.627 178.464 184.041ZM1025.15 261.409C1024.56 252.031 1019.88 244.997 1011.1 241.481H1009.35L1008.76 244.411C1009.35 244.411 1009.35 244.411 1009.35 244.997H1008.76L1009.35 246.756L1009.93 256.72C1009.93 257.306 1009.93 257.306 1010.52 257.306L1009.93 258.478V259.064C1009.93 260.823 1010.52 261.409 1010.52 261.409L1009.93 264.925L1010.52 270.787L1011.1 271.959C1010.52 271.959 1010.52 271.959 1010.52 272.545H1011.1L1010.52 273.717V276.648L1011.69 280.165C1019.29 278.992 1022.8 276.062 1022.8 273.131C1023.39 273.131 1023.98 269.028 1024.56 261.995L1023.39 260.823C1023.98 261.995 1024.56 261.409 1025.15 261.409ZM431.825 94.9512C437.676 94.9512 440.017 97.8818 440.017 103.157C441.772 104.329 445.283 110.19 451.134 121.913C458.156 131.877 461.666 138.91 461.666 141.841C461.081 141.841 460.496 143.013 459.326 145.357L459.911 150.632V156.494C459.911 157.08 459.911 157.08 459.326 157.08L459.911 158.252V166.458C461.666 175.835 462.252 181.111 462.252 182.283L462.837 184.041V191.075C462.837 194.005 463.422 198.108 464.592 201.625H464.007C464.592 206.314 465.177 208.658 465.177 208.658C465.177 209.244 465.177 209.244 464.592 209.244C465.177 215.692 465.177 220.967 465.177 224.483V225.069L464.592 229.758C465.177 231.517 466.347 237.964 466.933 249.686H467.518C467.518 250.273 467.518 250.273 466.933 250.273L468.103 276.062C467.518 276.062 467.518 276.062 467.518 276.648H468.103L467.518 277.82C468.103 283.095 468.103 287.198 468.103 290.129V291.301C468.103 291.887 468.103 291.887 468.688 291.887L468.103 294.818C468.688 301.265 468.688 306.54 468.688 310.643V311.229C468.688 312.401 468.688 313.573 468.103 314.159L469.858 321.193C469.858 321.779 469.858 321.779 469.273 321.779C469.858 325.882 470.443 327.64 471.614 327.64C471.028 329.985 470.443 331.743 469.858 331.743C470.443 336.432 471.028 339.363 471.614 339.363C471.614 339.949 471.614 339.949 471.028 339.949C472.784 348.74 473.369 355.774 473.369 359.291V359.877C468.103 362.221 465.762 363.393 464.592 363.393H464.007L462.252 362.807C462.252 363.979 460.496 365.152 457.57 366.91C457.57 365.738 456.985 365.738 455.815 365.738L442.357 371.599C441.187 371.013 440.602 371.013 440.017 371.013C423.633 377.46 411.345 381.563 404.324 382.149C403.739 382.149 401.398 376.874 396.717 366.91C392.036 358.704 389.111 352.257 387.94 346.396C387.355 346.396 387.355 346.396 387.355 345.81V343.465L387.94 342.293H387.355C387.355 341.707 387.355 341.707 387.94 341.707L387.355 338.19V333.501H379.748L378.578 332.915V333.501L376.823 332.915H372.142L369.216 334.087C369.216 333.501 368.631 332.915 366.876 331.743C364.535 331.743 362.78 335.846 361.024 344.638L355.173 367.496H355.758C354.588 372.185 351.662 374.53 347.566 374.53C343.47 371.013 335.279 366.91 322.406 361.635C318.895 358.704 312.459 355.774 304.267 353.429C303.097 351.671 299.001 349.327 293.149 346.396C293.149 345.224 290.809 341.121 286.128 333.501C286.128 332.329 284.958 329.398 282.032 325.296C279.106 320.607 277.351 315.332 275.01 309.47C283.787 283.095 292.564 249.686 301.341 208.072C303.097 199.866 306.022 188.73 310.703 174.077C314.799 161.183 318.895 145.943 322.991 127.774C322.406 126.602 322.406 126.015 322.406 125.429C322.406 123.671 325.331 122.499 331.768 121.913C335.864 119.568 348.737 116.051 369.216 112.535C371.557 111.949 376.823 110.19 386.77 107.26V107.846C406.664 102.571 420.707 98.4679 430.069 94.9512V95.5373C430.655 95.5373 431.24 94.9512 431.825 94.9512Z" fill="black"></path> <path fill-rule="evenodd" clip-rule="evenodd" d="M1149.19 207.486C1153.87 212.761 1158.55 215.105 1162.65 216.278V216.864C1169.09 218.036 1179.62 216.278 1193.08 210.416C1200.68 199.28 1204.19 191.661 1204.78 187.558V184.627L1204.19 182.869H1204.78C1203.02 175.249 1199.51 168.802 1194.25 164.113L1183.72 156.493L1180.2 155.907C1179.03 155.321 1177.28 155.907 1175.52 156.493C1173.77 155.907 1172.01 155.321 1170.26 154.735C1165.58 153.563 1159.14 157.666 1149.78 165.871C1147.44 171.146 1145.68 177.008 1143.93 184.627C1143.34 196.936 1145.1 204.555 1149.19 207.486ZM1452.87 314.159L1449.95 334.673H1450.53C1449.95 335.846 1449.95 336.432 1449.95 337.018C1449.95 338.776 1449.36 348.74 1447.61 367.496H1447.02C1447.02 369.841 1450.53 371.599 1458.14 371.599H1460.48C1465.75 371.599 1471.6 371.599 1478.62 371.013C1480.38 372.185 1483.3 372.771 1486.81 372.771H1491.49C1492.08 372.771 1492.08 372.771 1492.08 372.185C1492.08 372.771 1497.34 373.357 1507.88 374.529L1509.63 373.943C1510.8 374.529 1511.39 374.529 1511.97 374.529V373.943C1515.48 374.529 1523.68 375.702 1535.96 376.874C1536.55 376.874 1539.47 376.874 1544.74 376.288C1555.27 377.46 1564.05 378.046 1570.49 378.046H1571.66L1575.17 378.632V378.046L1576.92 378.632H1585.11C1585.7 378.632 1586.28 378.046 1587.45 376.288V363.979C1587.45 363.393 1587.45 363.393 1586.87 363.393L1587.45 361.635V353.429L1588.04 351.671H1587.45L1588.04 350.499V346.982C1589.21 339.362 1589.79 335.26 1589.79 334.673H1589.21L1589.79 333.501V332.915C1581.02 334.087 1575.17 334.673 1572.24 334.673H1568.14L1564.63 335.26V334.673L1551.18 337.018C1550.59 337.018 1550.59 337.018 1550.59 336.432C1545.91 337.604 1541.81 338.19 1539.47 338.19V337.604L1538.3 338.19H1533.62C1533.04 338.19 1532.45 336.432 1530.7 332.915H1530.11V327.054C1530.11 326.468 1530.11 326.468 1530.7 326.468L1530.11 325.296V314.745C1530.11 313.573 1530.11 312.401 1530.7 311.815C1530.11 310.643 1530.11 310.056 1530.11 308.884C1531.28 308.884 1536.55 307.712 1545.91 305.954C1547.08 306.54 1547.67 306.54 1548.84 306.54V305.954C1551.18 307.126 1552.93 307.712 1554.1 307.712C1558.78 306.54 1562.88 305.954 1565.22 305.954H1570.49C1574 305.954 1575.75 304.195 1575.75 300.679V286.026C1575.75 283.681 1575.75 281.337 1575.17 277.82C1575.75 276.648 1575.75 276.062 1575.75 275.475C1575.17 274.303 1575.17 273.717 1575.17 273.131H1572.24L1568.73 272.545V269.614L1566.97 269.028H1566.39L1565.22 269.614C1565.22 269.028 1564.63 267.856 1563.46 267.27C1562.29 267.856 1558.78 269.028 1552.93 269.614L1547.08 267.856V268.442C1545.32 267.27 1544.15 267.27 1542.4 267.27C1540.64 267.27 1539.47 267.856 1539.47 268.442C1536.55 267.856 1534.21 266.098 1533.62 263.167L1534.21 261.409L1533.62 253.789H1534.21C1533.04 249.686 1532.45 243.825 1531.87 235.619C1532.45 230.93 1533.62 228.586 1534.79 228.586L1541.81 229.172C1542.98 229.172 1544.15 229.172 1544.74 228.586C1556.44 229.758 1563.46 229.758 1565.8 229.758C1567.56 229.172 1569.31 229.172 1571.07 229.172C1571.07 229.758 1571.07 229.758 1571.66 229.758V229.172L1572.83 229.758H1590.38C1590.96 229.758 1590.96 229.758 1590.96 229.172L1592.72 229.758C1597.4 229.758 1599.74 226.242 1599.74 219.794L1605.01 198.694L1604.42 196.936C1605.59 195.763 1606.18 192.247 1606.76 186.972C1606.76 184.627 1605.59 182.869 1603.25 182.283V182.869C1602.08 182.283 1601.5 182.283 1600.91 182.283C1591.55 182.283 1583.94 181.697 1578.09 181.11C1577.51 181.11 1577.51 181.11 1577.51 181.697L1572.24 181.11H1568.14C1566.39 181.11 1565.8 181.11 1565.8 181.697C1558.2 181.11 1551.76 180.524 1545.91 179.352V181.697C1545.32 181.697 1545.32 181.697 1545.32 181.11L1540.06 181.697H1537.72C1532.45 181.697 1530.11 181.11 1530.11 179.938L1528.36 180.524C1524.85 179.352 1521.92 179.352 1519.58 179.352C1517.24 179.352 1514.9 179.352 1511.39 179.938C1509.05 179.352 1505.54 179.352 1501.44 179.352V179.938L1499.68 179.352H1496.17C1495.59 179.352 1495.59 179.352 1495.59 179.938L1493.83 179.352H1490.91C1490.32 179.352 1490.32 179.352 1490.32 179.938L1489.15 179.352H1485.06C1484.47 179.352 1484.47 179.352 1484.47 179.938L1483.3 179.352C1482.13 179.938 1481.55 179.938 1480.38 179.938V179.352C1479.79 179.352 1479.79 179.352 1479.79 179.938L1475.69 179.352H1473.35L1471.6 179.938V179.352L1469.84 179.938C1468.09 179.938 1467.5 179.938 1467.5 179.352L1463.99 179.938H1456.39C1451.12 179.938 1448.19 185.799 1448.19 197.522C1446.44 215.105 1444.68 226.242 1443.51 230.93C1444.1 233.275 1445.85 233.861 1448.19 233.861H1451.7C1452.29 233.861 1452.29 233.861 1452.29 233.275C1452.87 233.275 1452.87 233.275 1452.87 233.861C1455.8 233.275 1457.56 233.275 1458.73 233.275C1461.07 234.447 1462.24 235.033 1462.24 236.206C1460.48 242.067 1459.9 245.583 1459.9 247.342L1460.48 253.789C1459.9 257.892 1458.73 263.167 1456.97 269.614C1456.97 270.2 1456.97 270.2 1457.56 270.2C1457.56 273.717 1456.39 280.751 1454.63 291.887C1454.63 292.473 1454.63 292.473 1455.21 292.473C1454.04 304.195 1452.87 310.643 1451.7 312.987H1452.87V314.159ZM1334.09 290.715C1331.75 294.817 1330.58 297.748 1330.58 300.679C1327.66 306.54 1323.56 311.229 1317.12 314.745L1308.35 317.09V316.504L1306.59 317.09H1303.67C1297.82 317.09 1291.96 314.159 1286.11 308.884C1279.68 304.195 1275.58 299.506 1273.83 294.817C1273.83 294.231 1273.83 294.231 1273.24 294.231C1264.46 307.712 1260.37 315.918 1260.37 317.676L1253.35 333.501C1253.35 337.604 1258.61 343.465 1269.73 351.085C1269.73 352.257 1271.48 353.429 1274.41 354.015C1274.41 356.946 1283.77 362.807 1301.33 371.599C1311.86 373.943 1318.29 375.116 1321.81 375.116C1322.98 374.529 1323.56 374.529 1324.15 374.529V375.116C1324.73 375.116 1324.73 375.116 1324.73 374.529L1334.68 375.702L1339.36 374.529L1342.29 375.116C1353.4 373.943 1366.86 368.082 1382.07 357.532C1390.85 348.74 1396.12 339.362 1398.46 328.812C1397.87 322.365 1397.29 318.848 1396.7 318.848L1397.29 317.676V316.504L1396.7 314.745H1397.29L1396.7 313.573C1396.7 301.851 1393.78 291.301 1388.51 282.509C1384.41 271.959 1374.47 251.445 1359.25 221.553L1337.6 178.18C1337.6 175.249 1337.02 173.491 1335.26 173.491V172.905C1335.26 170.56 1338.77 165.285 1345.21 157.08C1351.06 154.149 1355.74 152.391 1358.08 152.391H1362.76L1364.52 151.805V152.391C1365.69 151.805 1366.28 151.805 1366.86 151.805C1370.96 151.805 1376.22 154.735 1382.66 160.01H1383.24V158.252C1383.24 152.391 1386.17 136.565 1391.44 111.362C1391.44 106.087 1382.66 100.812 1364.52 94.951C1364.52 95.5372 1364.52 95.5372 1363.93 95.5372C1363.93 93.7788 1359.25 92.6066 1350.48 90.8482C1350.48 89.676 1349.31 89.676 1346.97 89.0899V89.676C1345.21 89.0899 1342.87 87.9176 1339.94 87.3315V87.9176C1338.77 87.3315 1337.02 86.7454 1332.92 86.1593V87.9176C1332.34 87.9176 1332.34 87.9176 1332.34 87.3315C1316.54 87.9176 1307.76 90.2621 1306.01 94.3649C1305.42 94.3649 1305.42 94.3649 1305.42 93.7788C1298.99 93.7788 1290.79 100.812 1281.43 114.293C1278.51 115.465 1274.41 120.74 1270.31 130.118C1268.56 130.118 1267.97 135.393 1267.39 145.357V150.046C1267.97 155.907 1269.73 158.252 1270.9 158.252L1270.31 159.424C1270.31 162.355 1273.83 169.974 1280.85 182.283L1280.26 183.455C1280.85 183.455 1283.19 187.558 1286.11 196.35C1299.57 219.794 1307.76 234.447 1310.1 240.308C1310.69 240.308 1313.03 243.239 1315.95 249.1C1318.88 252.031 1324.15 261.409 1331.75 277.82C1332.34 281.337 1333.51 285.439 1334.09 290.715ZM1132.81 310.643C1131.64 310.643 1129.88 321.193 1126.96 342.879C1126.37 342.879 1125.79 344.051 1125.2 347.568H1125.79L1125.2 348.74V352.257C1125.79 352.257 1126.37 352.843 1127.54 353.429C1148.02 354.601 1167.92 354.601 1186.06 354.015V350.499C1187.23 348.154 1187.81 346.982 1188.4 346.982L1187.81 345.224L1188.98 318.848C1188.98 318.262 1188.98 318.262 1189.57 318.262L1188.98 316.504C1190.15 307.126 1191.32 299.506 1191.32 294.817V292.473L1191.91 288.956H1191.32L1191.91 287.784L1192.49 276.648C1192.49 276.062 1192.49 276.062 1191.91 276.062C1192.49 274.889 1193.08 271.959 1193.66 266.684H1193.08C1193.08 266.098 1193.08 266.098 1193.66 266.098C1194.25 256.72 1193.08 251.445 1190.15 250.859L1154.46 249.1C1154.46 249.686 1150.95 250.272 1144.51 249.686C1142.17 257.306 1139.83 269.028 1138.08 284.853C1137.49 286.026 1135.15 294.817 1132.81 310.643ZM950.249 269.614C950.834 274.889 951.419 278.992 951.419 281.923H950.834L951.419 283.681L952.004 294.231C952.004 294.817 952.59 294.817 952.59 294.817L952.004 296.576V297.162C952.004 297.748 952.004 297.748 952.59 297.748L952.004 299.506V300.092C952.004 301.851 952.59 302.437 952.59 302.437C952.59 303.023 952.589 303.609 952.004 304.781C953.175 318.848 954.345 327.64 954.93 330.571L954.345 331.743C954.345 332.915 954.93 333.501 954.93 333.501C954.345 338.776 954.345 342.293 954.93 344.637L955.515 358.118C955.515 358.704 956.1 358.704 956.1 358.704L955.515 360.463C956.1 368.668 957.856 372.771 960.781 372.771H966.047L969.558 372.185V372.771C975.995 372.185 980.091 371.013 981.261 370.427V371.013L982.431 370.427C983.016 370.427 983.016 371.013 983.016 371.599C984.772 370.427 985.942 369.841 987.697 369.841V370.427C1003.5 368.082 1014.61 365.152 1022.22 361.049C1028.66 359.29 1034.51 355.774 1041.53 349.913C1043.87 349.326 1049.72 344.637 1059.08 335.846C1070.2 321.193 1077.22 310.643 1081.9 304.195C1090.68 283.095 1095.36 268.442 1094.78 259.65C1095.36 256.134 1095.95 248.514 1096.53 236.206H1095.95L1096.53 234.447L1095.36 215.691C1094.78 206.314 1091.85 192.247 1086 174.663C1084.24 170.56 1080.15 164.699 1075.47 157.666C1066.69 145.943 1055.57 137.152 1042.7 131.876C1032.17 128.946 1025.15 127.774 1020.46 127.774H1015.2C1014.03 128.946 1010.52 129.532 1004.67 130.118C1004.67 130.704 1004.67 130.704 1004.08 130.704C1004.08 130.118 1003.5 130.118 1003.5 130.118V130.704L1001.74 130.118L989.453 135.393C989.453 136.565 988.867 137.152 988.282 136.565C988.282 135.979 988.282 135.979 987.697 135.979C987.697 136.565 982.431 139.496 972.484 144.771C970.143 147.702 965.462 151.218 957.856 155.907C954.345 160.596 950.249 164.113 946.153 167.044C946.153 172.905 945.568 176.421 944.983 176.421C944.983 177.008 944.983 177.008 945.568 177.008L944.983 179.938L946.153 186.972C946.153 188.144 946.153 188.144 945.568 188.144L946.738 195.763L947.323 205.727C947.908 212.175 948.494 219.208 949.079 226.828C948.494 228.586 948.494 230.93 948.494 233.861L949.664 236.792L949.079 237.964C949.664 239.136 949.664 239.722 950.249 240.894V241.481C950.249 242.067 950.249 242.067 949.664 242.067C949.664 242.653 949.664 242.653 950.249 242.653C949.664 245.583 949.664 246.756 949.664 247.342C949.664 250.272 950.249 254.375 950.834 259.65C950.249 265.511 950.249 268.442 950.249 269.614ZM1000.57 242.653L999.985 229.758C999.985 229.172 999.985 229.172 1000.57 229.172C999.4 226.828 998.815 224.483 998.815 220.966L999.4 215.691C998.815 215.691 998.815 215.691 998.815 215.105C1007.59 210.416 1013.44 208.658 1016.37 208.658C1016.95 208.658 1016.95 208.658 1016.95 209.244L1020.46 208.658H1025.15L1026.9 209.244V208.658C1038.02 213.347 1043.87 219.794 1044.45 228H1045.04C1045.04 228.586 1045.04 228.586 1044.45 228.586C1045.04 234.447 1045.62 239.136 1045.62 241.481V242.067C1045.62 244.997 1045.04 249.1 1043.87 254.375L1045.04 255.547C1040.36 269.028 1035.68 278.406 1031 282.509C1026.32 286.612 1018.12 289.542 1006.42 291.301H1004.08C1004.08 287.198 1003.5 282.509 1002.91 277.82L1003.5 273.131H1002.91C1002.91 272.545 1002.91 272.545 1003.5 272.545L1001.74 262.581C1002.33 262.581 1002.33 262.581 1002.33 261.995H1001.74L1002.33 260.823L1001.74 247.928L1001.16 246.17C1001.74 246.17 1001.74 246.17 1001.74 245.583C1001.16 245.583 1001.16 245.583 1001.16 244.997H1001.74L1000.57 242.653ZM726.73 235.033C717.953 264.925 713.272 280.751 713.272 282.509C717.953 286.026 727.315 290.128 741.358 295.404C746.039 298.92 751.305 301.265 757.156 303.609C757.156 304.781 758.912 305.368 763.008 305.954C765.348 301.851 769.444 291.301 775.296 273.131C774.71 272.545 774.71 271.373 774.71 270.2L779.391 266.684C784.658 268.442 786.998 269.028 786.998 269.614L788.753 269.028C794.02 269.614 796.36 270.2 796.36 270.2L798.115 269.614C810.988 272.545 818.01 274.303 818.595 274.303C822.106 274.303 823.861 276.648 823.861 281.337C825.617 288.956 826.202 296.576 826.787 304.195C826.202 305.368 826.202 305.954 826.202 306.54C827.372 311.815 828.542 314.159 829.127 314.159C844.341 306.54 857.214 301.265 867.161 297.162L870.672 293.645L871.842 294.231C874.182 294.231 875.353 291.301 875.353 285.439C875.353 284.267 875.353 277.234 874.767 264.925H874.182L874.767 263.167C874.182 261.995 874.182 261.409 874.182 260.823H874.767L871.842 228.586H872.427L871.842 226.828V216.864C868.916 190.488 867.161 170.56 866.576 157.08C867.161 155.321 867.161 153.563 867.161 151.805H866.576L867.161 150.632L865.405 143.599H865.99L865.405 141.841C865.405 141.254 865.405 138.91 865.99 134.221L865.405 133.049C865.405 132.463 865.405 132.463 865.99 132.463C862.48 103.157 860.139 87.9176 860.139 86.1593L860.724 84.4009V77.3675C860.724 76.1953 860.139 75.6091 859.554 75.6091L856.628 77.3675C855.458 76.7814 854.873 76.7814 853.703 76.7814L850.777 78.5397V77.9536C844.926 79.712 839.66 81.4703 834.979 81.4703C834.979 82.0564 833.223 82.6426 829.713 83.8148C829.713 83.2287 829.712 83.2287 829.127 83.2287C829.127 84.4009 819.18 86.7454 798.701 90.8482L789.339 93.7788V93.1927C783.487 93.7788 777.636 94.951 771.2 96.7094C763.008 100.226 758.912 103.157 758.912 106.087C757.742 116.051 753.646 129.532 748.38 145.943C742.528 167.044 738.432 181.11 737.262 188.144C737.262 191.074 735.507 201.038 731.411 217.45H731.996C729.655 224.483 727.9 230.344 726.73 235.033ZM793.435 186.972C795.775 183.455 797.53 178.766 798.701 171.733C799.286 171.733 800.456 169.388 801.626 164.699H806.892L809.818 167.63C809.233 168.802 809.233 169.388 809.233 169.974C809.233 172.905 809.818 177.008 810.988 183.455H810.403C810.988 188.144 812.159 192.833 813.329 196.936C813.329 197.522 813.329 197.522 812.744 197.522C813.914 211.589 815.084 219.794 816.255 222.725H815.669C816.84 224.483 817.425 228 818.01 233.275C818.01 234.447 816.255 236.206 812.744 239.136L808.063 238.55L806.307 239.136C806.307 238.55 806.307 238.55 805.722 238.55C805.722 239.136 805.722 239.136 805.137 239.136C805.137 238.55 803.967 237.378 802.211 236.792L801.041 237.378C795.19 235.033 791.679 234.447 789.924 234.447L788.753 235.033C785.828 234.447 782.902 233.275 781.147 232.103C782.317 229.758 784.072 223.311 786.413 213.347C785.828 213.347 785.828 213.347 785.828 212.761C785.828 213.933 788.754 204.555 793.435 186.972ZM521.35 307.712C523.69 327.054 526.616 344.637 529.542 361.049H528.956L531.297 368.668H530.712L533.637 380.977C533.637 381.563 533.637 381.563 533.052 381.563C533.637 386.252 534.223 388.596 534.223 388.596C534.223 389.182 534.223 389.182 533.637 389.182C534.223 394.457 534.808 396.802 535.978 396.802H538.318C540.074 396.802 543.585 395.63 547.095 393.285C547.68 393.285 547.68 393.285 547.68 393.871C550.021 393.871 552.362 392.699 555.287 390.941V391.527L587.469 378.632V378.046C583.373 354.601 581.618 335.846 581.618 321.779C581.618 319.434 580.448 311.815 578.692 300.092V299.506H579.277C580.448 304.781 588.054 314.745 601.512 328.226C601.512 329.398 603.853 332.915 608.534 338.19C608.534 337.604 608.534 337.604 609.119 337.604C609.119 339.948 613.215 346.982 621.407 358.118C632.524 372.185 644.227 385.666 657.1 397.388C660.61 394.457 667.632 383.321 678.749 364.565C680.505 364.565 682.845 360.463 685.771 352.257H687.526V351.671C686.941 350.499 682.845 347.568 676.409 344.051C657.1 327.054 644.812 315.918 640.716 311.229C639.546 311.229 631.939 303.023 617.896 287.784C613.215 283.095 609.704 278.992 607.364 274.303C607.949 274.303 614.385 267.27 625.503 254.375C640.716 236.792 648.323 224.483 649.493 218.622C653.004 213.933 656.514 205.727 660.025 193.419C662.366 179.352 664.121 172.319 664.121 172.319C663.536 171.146 663.536 170.56 663.536 169.974L664.121 168.216C663.536 167.63 663.536 166.457 663.536 165.285C663.536 164.699 663.536 164.113 664.121 162.941C661.195 148.288 657.685 139.496 653.589 136.565C653.589 135.979 651.833 134.807 648.908 133.635C644.812 127.188 634.28 122.499 617.896 118.982C612.63 118.982 610.289 118.396 610.289 117.81L609.119 118.396C607.949 117.81 607.364 117.81 606.778 117.81V118.396L605.608 117.81C605.023 117.81 605.023 117.81 605.023 118.396L600.342 117.81L593.906 118.396C593.32 118.396 593.321 118.396 593.321 117.81L589.81 118.396H585.129C582.788 118.396 577.522 118.982 568.745 120.74V120.154L560.553 123.085H557.043C555.872 123.085 551.191 124.843 543.585 128.36C537.148 128.946 528.956 133.049 519.594 139.496C517.839 139.496 513.743 141.254 508.477 145.357L497.359 153.563C496.189 153.563 492.678 156.493 487.412 162.355C486.242 164.699 484.487 166.457 482.146 167.63C480.391 171.146 479.806 173.491 479.806 175.249V175.835C479.806 176.421 479.806 176.421 480.391 176.421L479.806 177.594C480.391 179.352 480.391 180.524 480.976 180.524C480.976 181.11 480.976 181.11 480.391 181.11C481.561 188.73 482.146 192.247 482.731 192.247C482.731 192.833 482.731 192.833 482.146 192.833C482.731 200.452 483.901 209.83 485.657 220.966C489.168 220.966 496.774 217.45 508.477 209.83H509.062C509.062 210.416 509.062 211.002 509.647 212.175C509.062 216.278 508.477 216.864 507.892 216.864L510.232 229.758H509.647L510.817 237.378H510.232L511.988 242.067H511.403C513.158 243.825 514.328 253.203 516.084 270.2C516.669 270.2 516.669 270.2 516.669 270.787H516.084L523.105 305.367H522.52L523.105 307.126C522.52 307.712 521.935 307.712 521.35 307.712ZM575.182 246.756C575.182 247.342 573.426 248.514 569.33 250.272C569.33 247.928 568.16 243.239 565.819 235.033L561.724 211.589C560.553 210.416 559.968 203.383 558.798 190.488V187.558C559.968 187.558 562.894 185.799 567.575 182.869C572.841 180.524 576.352 178.766 578.692 178.766C579.863 179.352 580.448 179.352 581.033 179.352V178.766C587.469 178.766 593.906 183.455 599.757 192.247C601.512 196.35 602.097 198.694 602.097 200.452L601.512 201.625C602.097 202.797 602.097 203.383 602.097 203.969C601.512 209.244 599.172 217.45 593.906 228C592.735 228 589.225 231.517 583.373 238.55C582.788 239.722 579.863 242.067 575.182 246.756ZM296.075 262.581C287.298 292.473 282.617 308.298 282.617 310.056C287.298 313.573 296.66 317.676 310.703 322.951C315.384 326.468 320.651 328.812 326.502 331.157C326.502 332.329 328.257 332.915 332.353 333.501C334.694 329.398 338.79 318.848 344.641 300.679C344.056 300.092 344.056 298.92 344.056 297.748L348.737 294.231C354.003 295.99 356.343 296.576 356.343 297.162L358.099 296.576C363.365 297.162 365.705 297.748 365.705 297.748L367.461 297.162C380.334 300.092 386.77 301.851 387.94 301.851C391.451 301.851 393.206 304.195 393.206 308.884C394.962 316.504 395.547 324.123 396.132 331.743C395.547 332.915 395.547 333.501 395.547 334.087C396.717 339.362 397.888 341.707 398.473 341.707C413.686 334.087 426.559 328.812 436.506 324.709L440.017 321.193L441.187 321.779C443.528 321.779 444.698 318.848 444.698 312.987C444.698 311.815 444.698 304.781 444.113 292.473H443.528L444.113 290.715C443.528 289.542 443.528 288.956 443.528 288.37H444.113L441.187 256.134H441.772L441.187 254.375V244.411C438.261 218.036 436.506 198.108 435.921 184.627C436.506 182.869 436.506 181.11 436.506 179.352H435.921L436.506 178.18L434.751 171.146H435.336L434.751 169.388C434.751 168.802 434.751 166.457 435.336 161.769L434.751 160.596C434.751 160.01 434.751 160.01 435.336 160.01C431.825 130.704 429.484 115.465 429.484 113.707L430.07 111.948V104.915C430.07 103.743 429.485 103.157 428.899 103.157L425.974 104.915C424.803 104.329 424.218 104.329 423.048 104.329L418.952 105.501V104.915C413.101 106.673 407.835 108.432 403.154 108.432C403.154 109.018 401.398 109.604 397.888 110.776C397.888 110.19 397.888 110.19 397.302 110.19C397.302 111.362 387.355 113.707 366.876 117.81L357.514 120.74V120.154C351.662 120.74 345.811 121.912 339.375 123.671C331.183 127.188 327.087 130.118 327.087 133.049C325.917 143.013 321.821 156.493 316.555 172.905C310.703 194.005 306.607 208.072 305.437 215.105C305.437 218.036 303.682 228 299.586 244.411H300.171C297.831 251.445 296.075 257.306 294.905 261.995H296.075V262.581ZM363.365 214.519C365.705 211.002 367.461 206.314 368.631 199.28C369.216 199.28 370.386 196.936 371.557 192.247H376.823L379.749 195.177C379.163 196.35 379.163 196.936 379.163 197.522C379.163 200.452 379.749 204.555 380.919 211.002H380.334C380.919 215.691 382.089 220.38 383.259 224.483C383.259 225.069 383.259 225.069 382.674 225.069C383.844 239.136 385.015 247.342 386.185 250.272H385.6C386.77 252.031 387.355 255.547 387.94 260.823C387.94 261.995 386.185 263.753 382.674 266.684L377.993 266.098L376.238 266.684C376.238 266.098 376.238 266.098 375.653 266.098C375.653 266.684 375.653 266.684 375.068 266.684C375.068 266.098 373.897 264.925 372.142 264.339L370.972 264.925C365.12 262.581 361.61 261.995 359.854 261.995L357.514 263.753C354.588 263.167 351.662 261.995 349.907 260.823C351.077 258.478 352.833 252.031 355.173 242.067C354.588 242.067 354.588 242.067 354.588 241.481C355.173 240.895 358.099 232.103 363.365 214.519ZM145.697 417.902C143.942 408.524 142.186 389.769 138.676 361.635C139.261 357.532 139.846 355.774 141.016 355.774H146.282L148.623 357.532C158.57 357.532 170.272 355.188 183.145 349.913C186.071 349.913 190.167 348.154 195.433 345.224C196.603 345.224 201.284 341.707 210.646 334.673C222.349 327.64 231.711 314.745 237.562 295.404C242.243 284.267 244.584 269.614 244.584 252.031C244.584 240.895 239.318 227.414 229.37 211.002C218.253 200.452 208.891 194.005 201.284 192.833C201.284 192.247 197.774 191.074 191.337 190.488L189.582 191.074C187.241 189.902 184.901 189.316 181.975 189.316C180.22 189.902 179.049 189.902 179.049 189.902C178.464 189.316 177.294 189.316 176.124 189.316C174.954 189.902 174.368 189.902 173.783 189.902V189.316C155.059 191.074 137.505 194.591 120.537 199.28C110.589 201.625 98.3017 206.9 83.6735 214.519C66.7047 224.483 56.7575 230.344 53.2468 233.275C53.2468 235.033 52.6616 235.619 50.9062 235.619C52.0765 240.308 52.0765 244.411 52.0765 246.756V252.031L52.6616 253.203H53.8319C55.0022 256.72 56.1724 264.339 57.9278 277.234H56.7575C57.3427 279.578 57.9278 280.751 59.0981 280.751C66.7047 277.82 70.2155 275.475 70.2155 274.889C74.8965 274.889 77.237 280.164 77.237 290.128C77.237 293.645 77.237 296.576 77.8222 298.92H77.237L77.8222 300.679V303.609C77.8222 308.884 78.4073 315.918 80.1627 324.123H79.5776C81.3329 337.018 81.9181 344.051 82.5032 344.051L81.9181 346.982C82.5032 349.913 82.5032 351.671 82.5032 352.843C82.5032 353.429 82.5032 354.015 81.9181 355.188C83.0883 361.049 84.8437 385.666 86.5991 428.452C87.7694 439.589 89.5247 447.208 91.2801 451.897C94.2058 451.897 112.345 446.036 145.112 435.486L148.038 433.141L147.452 431.969V429.625C147.452 425.522 146.867 422.005 145.697 419.661V417.902ZM141.601 305.367C136.335 305.367 133.995 301.265 133.995 293.059C133.995 292.473 133.995 292.473 134.58 292.473C132.824 279.578 131.069 268.442 128.728 259.064C128.728 256.134 132.824 253.789 139.846 252.031C141.016 249.686 146.282 247.928 155.644 247.342C161.496 249.1 165.591 252.617 169.102 257.306C173.783 263.753 176.124 270.2 176.124 275.475C175.539 284.267 172.613 290.715 168.517 295.404C162.666 303.023 156.229 306.54 149.793 306.54H147.452C144.527 305.368 142.771 304.781 142.771 304.195L141.601 305.367Z" fill="white"></path> <path fill-rule="evenodd" clip-rule="evenodd" d="M1239.3 481.789C1290.21 446.622 1380.9 470.653 1379.73 542.746L1379.15 565.018H1370.96C1380.9 577.327 1384.41 592.566 1384.41 608.391C1384.41 623.63 1379.73 637.697 1370.96 650.005C1342.87 687.517 1280.85 693.964 1241.06 669.933V680.483H1218.82C1187.23 680.483 1155.04 680.483 1123.45 680.483H1101.21C1073.13 680.483 1045.04 680.483 1016.95 680.483H994.719V658.211C994.719 648.833 994.719 639.455 994.719 630.077C983.601 635.352 971.313 638.283 957.855 638.283H949.664V681.07H927.429C913.386 681.07 899.343 681.07 884.714 681.07H862.479V658.797C862.479 647.075 862.479 635.938 862.479 624.216C849.607 633.594 833.223 638.869 814.499 638.869H806.307V681.656H784.072C774.125 681.656 764.763 681.656 754.816 681.656H731.411C707.42 681.656 684.015 681.656 660.025 681.656H576.937L561.723 655.28V681.656H539.489C525.445 681.656 511.402 681.656 496.774 681.656H474.539V659.383C474.539 624.216 474.539 588.463 474.539 553.296H465.762V681.656H443.527C429.484 681.656 415.441 681.656 401.398 681.656H379.163V551.537H338.204V529.265C338.204 516.37 338.204 504.062 338.204 491.167V468.895H497.359C521.935 468.895 545.925 468.895 570.5 468.895C592.15 468.895 612.044 475.928 626.673 489.409V468.895H648.908C672.313 468.895 695.133 468.895 718.538 468.895H740.773C765.348 468.895 789.338 468.895 813.914 468.895C831.468 468.895 848.436 473.584 861.894 483.548V468.895H884.129C908.705 468.895 932.695 468.895 957.27 468.895C971.313 468.895 984.186 471.825 995.889 477.686V468.895H1018.12C1042.11 468.895 1066.1 468.895 1090.09 468.895H1112.33C1146.85 468.895 1181.37 468.895 1215.9 468.895H1238.13V481.789H1239.3ZM645.982 582.602C643.641 587.877 640.716 593.152 637.79 597.841H645.982V582.602ZM809.233 554.468C809.233 553.882 809.233 552.71 809.233 552.123C808.063 552.123 806.892 552.123 805.722 552.123C805.722 552.71 805.722 553.882 805.722 554.468H809.233ZM952.589 554.468C952.589 553.882 952.589 552.71 952.589 552.123C951.419 552.123 950.249 552.123 949.078 552.123C949.078 552.71 949.078 553.882 949.078 554.468H952.589Z" fill="black"></path> <path fill-rule="evenodd" clip-rule="evenodd" d="M401.398 529.265V657.625C415.441 657.625 429.484 657.625 443.528 657.625V529.265H483.901C483.901 516.37 483.901 504.062 483.901 491.167H360.439C360.439 504.062 360.439 516.37 360.439 529.265H401.398Z" fill="#F456C3"></path> <path fill-rule="evenodd" clip-rule="evenodd" d="M605.023 599.013C647.152 570.293 635.45 491.753 569.915 491.167C545.925 491.167 520.765 491.167 496.774 491.167C496.774 546.848 496.774 602.529 496.774 657.625C510.817 657.625 524.86 657.625 539.489 657.625V608.391H561.724L590.395 657.625H637.79V651.177L605.023 599.013ZM569.915 570.293H539.489C539.489 556.812 539.489 542.745 539.489 529.265C549.436 529.265 559.968 529.265 569.915 529.265C593.906 529.265 592.735 570.293 569.915 570.293Z" fill="#EFA334"></path> <path fill-rule="evenodd" clip-rule="evenodd" d="M710.346 620.699V528.092H729.655C729.655 514.026 729.655 505.234 729.655 491.167C702.739 491.167 675.824 491.167 648.908 491.167C648.908 505.234 648.908 514.026 648.908 528.092H668.217V620.113H647.152C647.152 634.18 647.152 642.972 647.152 657.625C675.238 657.625 703.325 657.625 731.411 657.625C731.411 642.972 731.411 634.18 731.411 620.113H710.346V620.699Z" fill="#61E57F"></path> <path fill-rule="evenodd" clip-rule="evenodd" d="M783.487 657.625V615.424H813.914C893.491 615.424 893.491 491.753 813.914 491.167C789.339 491.167 764.763 491.167 740.773 491.167C740.773 546.848 740.773 602.529 740.773 657.625C754.816 657.625 768.859 657.625 783.487 657.625ZM813.914 576.74H783.487C783.487 563.26 783.487 542.745 783.487 529.265C793.434 529.265 803.967 529.265 813.914 529.265C838.489 529.265 837.319 576.74 813.914 576.74Z" fill="#7AD9F8"></path> <path fill-rule="evenodd" clip-rule="evenodd" d="M926.844 657.625V615.424H957.27C1036.85 615.424 1036.85 491.753 957.27 491.167C932.695 491.167 908.12 491.167 884.129 491.167C884.129 546.848 884.129 602.529 884.129 657.625C898.172 657.625 912.801 657.625 926.844 657.625ZM957.27 576.74H926.844C926.844 563.26 926.844 542.745 926.844 529.265C936.791 529.265 947.323 529.265 957.27 529.265C981.846 529.265 980.676 576.74 957.27 576.74Z" fill="#6E6EC6"></path> <path fill-rule="evenodd" clip-rule="evenodd" d="M1080.15 620.699V528.092H1099.46C1099.46 514.026 1099.46 505.234 1099.46 491.167C1072.54 491.167 1045.62 491.167 1018.71 491.167C1018.71 505.234 1018.71 514.026 1018.71 528.092H1038.02V620.113H1016.95C1016.95 634.18 1016.95 642.972 1016.95 657.625C1045.04 657.625 1073.13 657.625 1101.21 657.625C1101.21 642.972 1101.21 634.18 1101.21 620.113H1080.15V620.699Z" fill="#F456C3"></path> <path fill-rule="evenodd" clip-rule="evenodd" d="M1217.07 491.167C1177.86 491.167 1151.53 491.167 1113.5 491.167C1113.5 546.262 1113.5 601.943 1113.5 657.625C1152.12 657.625 1180.79 657.625 1219.41 657.625C1219.41 644.73 1219.41 632.421 1219.41 619.527C1194.25 619.527 1180.2 619.527 1155.63 619.527C1155.63 609.563 1155.63 600.185 1155.63 590.221H1212.39C1212.39 577.326 1212.39 565.018 1212.39 552.123H1155.63V528.679C1180.2 528.679 1192.49 528.679 1217.07 528.679C1217.07 516.37 1217.07 503.475 1217.07 491.167Z" fill="#EFA334"></path> <path fill-rule="evenodd" clip-rule="evenodd" d="M1269.14 606.633C1254.52 606.633 1242.23 606.633 1228.18 606.633C1227.01 679.897 1362.76 678.139 1362.76 607.805C1362.76 566.19 1330.58 562.088 1297.23 558.571C1282.02 556.812 1269.73 554.468 1270.9 541.573C1272.07 521.645 1317.12 519.887 1317.12 542.16C1331.75 542.16 1342.28 542.16 1357.5 542.16C1358.67 470.067 1229.35 470.067 1230.53 542.16C1231.11 578.499 1254.52 590.807 1290.79 593.152C1307.18 594.324 1321.22 596.082 1321.22 607.805C1321.22 627.733 1269.14 628.319 1269.14 606.633Z" fill="#61E57F"></path> </g> <defs> <clipPath id="clip0_40:864"> <rect width="421" height="171" fill="white" transform="scale(4)"></rect> </clipPath> </defs> </svg> 